{"title":"Hypothermia LIMITED DVDRip Xvid UnKnOwN","uid":7718894,"size":757561062,"categoryP":"video","categoryS":"movies","magnet":"?xt=urn:btih:cddc1076d9b25f97ea0324546a13eb564afd5812&amp;dn=Hypothermia+LIMITED+DVDRip+Xvid+UnKnOwN&amp;tr=udp%3A%2F%2Ftracker.openbittorrent.com%3A80&amp;tr=udp%3A%2F%2Fopen.demonii.com%3A1337&amp;tr=udp%3A%2F%2Ftracker.coppersurfer.tk%3A6969&amp;tr=udp%3A%2F%2Fexodus.desync.com%3A6969","seeders":2,"leechers":1,"uploader":"Acesn8s","files":-1,"time":1350012729,"description":"Encoded By .......:UnKnOwN\nRuntime ..........:1:12\nIMDb URL ........:http://www.imdb.com/title/tt1313244/\nLanguage .........:English\nFile Size ........:722mb\nRelease Date ......... 2012\nSource ......... Your Sister\nFile Type ......... Single AVI\nPS3 Compatible ....... Fuck your PS3\nGenre ......... Horror/Thriller\n\nVideo\nID: 0\nFormat: MPEG-4 Visual\nFormat profile: Advanced Simple@L5\nFormat settings, BVOP: Yes\nFormat settings, QPel: No\nFormat settings, GMC: No warppoints\nFormat settings, Matrix: Custom\nCodec ID: XVID\nCodec ID/Hint: XviD\nDuration: 1h 12mn\nBit rate: 1681kbps\nWidth: 680pixels\nHeight: 400pixels\nDisplay aspect ratio: 1:78\nFrame rate: 25.000fps\nColor space: YUV\nChroma subsampling: 4:2:0\nBit depth: 8 bits\nScan type: Progressive\nBits/(Pixel*Frame): 0.234\nStream size: 892 MiB (86%)\nWriting library: XviD 1.2.1 (UTC 2008-12-04)\n\nAudio\nID: 1\nFormat: AC3\nFormat/Info: MPEG\nMode extension: CM (complete main)\nCodec ID: 2000\nDuration: 1h 27mn\nBit rate mode: Constant\nBit rate: 128kbps\nChannel(s): 2channels\nChannel positions: Front: L R\nSampling rate: 48.0 KHz\nBit depth: 16 bits\nStream size: 302 MiB\nAlignment: Aligned on interleaves\nInterleave, duration: 42 ms (1.00 video frame)\nInterleave, preload duration: 512 ms\n\nSYNOPSIS\nRay Pelletier just wants to spend a pleasant weekend ice fishing trip\nwith his family. Alas, Ray's plans are ruined by the unwanted presence of the\nobnoxious big city father and son duo of Steve Cote and Stevie Jr. However\ntwo squabbling families are forced to set aside their differences and work\ntogether after a vicious monster awakens from the cold waters of the remote\nfrozen lake area they are staying at...\n\nRELEASE INFO\nEnjoy\n\nLOOKING FOR\n\nA sex slave send your girl over\n\nGREETZ &amp; RESPECT\n\nNOBODY YET WILL LET YOU KNOW\n\nMORE GOODIES COMING REAL SOON","torrent":{"xt":"urn:btih:cddc1076d9b25f97ea0324546a13eb564afd5812","amp;dn":"Hypothermia+LIMITED+DVDRip+Xvid+UnKnOwN","amp;tr":["udp%3A%2F%2Ftracker.openbittorrent.com%3A80","udp%3A%2F%2Fopen.demonii.com%3A1337","udp%3A%2F%2Ftracker.coppersurfer.tk%3A6969","udp%3A%2F%2Fexodus.desync.com%3A6969"],"infoHash":"cddc1076d9b25f97ea0324546a13eb564afd5812","infoHashBuffer":{"type":"Buffer","data":[205,220,16,118,217,178,95,151,234,3,36,84,106,19,235,86,74,253,88,18]},"announce":[],"urlList":[]}}